#!OML:ASF E:/inclinewalkrobotboard/Project1/Captureday1/Session1/subject1.ASF
:FULLY-SPECIFIED
:DEGREES
26
root 0 0 0 1.2581836371136421 -3.5918125240586622 1.899610210470609
lowerback 12.04279466173467 0.8483002557533649 -0.10760742872615714
upperback -4.409497595604462 1.0653579539990956 -0.6024245812191068
thorax -11.572997018600983 0.48726932176289217 -0.8027517161393054
lowerneck -5.9618368371619 1.7283512690705163 4.699972622630092
upperneck 18.39380116607481 3.287207786064249 -8.468762846732503
head 6.7315572162396 1.2127781404218299 -3.2529402202960735
rclavicle -3.7779188590540123E-16 -2.1124742706790718E-15
rhumerus 20.78920747579363 14.832611637385847 -47.29414296172291
rradius 72.87481057151653
rwrist 27.418785857425306
rhand -34.55815223502214 -57.65215267291788
rfingers 7.12502000000002
rthumb -7.751659408312067 -87.60841489948238
lclavicle -2.2030911606414274E-15 4.191251984089028E-16
lhumerus 21.89004742454982 -13.057910622396172 44.450776412878085
lradius 70.73856748322684
lwrist -22.50293142126639
lhand -45.095926757706906 -70.84257502708711
lfingers 7.125020000000016
lthumb -17.857534568371598 -41.89953138011981
rfemur -25.613865232819848 -2.371271379477398 16.876728158276716
rtibia 54.52158866815401
rfoot -31.337307955148873 -17.851645173946846
rtoes -19.036065012179623
lfemur -27.98741861105623 2.8319863665117473 -18.34219077680453
ltibia 54.78548012237963
lfoot -33.21664358608124 -3.5341848732874213
ltoes -20.65906448710772
27
root 0 0 0 1.2581408202973585 -3.5917747172647903 1.89960649908658
lowerback 12.042771763867925 0.8483036094657714 -0.10761010962424455
upperback -4.409497024639255 1.0653612561438628 -0.6024229217709712
thorax -11.572984690343603 0.48727083951049993 -0.8027489212710524
lowerneck -5.96181481059258 1.7283631223197589 4.700003625020072
upperneck 18.39382093993794 3.2872246007061605 -8.46880177476348
head 6.731559157590369 1.2127842547179712 -3.252955769246726
rclavicle -3.779826200457848E-16 -2.1127001315978604E-15
rhumerus 20.7888482921041 14.832077994520597 -47.29376464886117
rradius 72.87453507244393
rwrist 27.419196480471804
rhand -34.5581630249082 -57.65226504141131
rfingers 7.12502000000002
rthumb -7.751673935497628 -87.6085118450844
lclavicle -2.2031938505900683E-15 4.189539641664016E-16
lhumerus 21.889980924404817 -13.057649582815504 44.45065040227094
lradius 70.73843743580183
lwrist -22.503113117891445
lhand -45.09590919463305 -70.8428146283552
lfingers 7.125020000000016
lthumb -17.85751871658914 -41.89978519598276
rfemur -25.613237942970144 -2.371410027947623 16.876629453474074
rtibia 54.52222741090856
rfoot -31.33643303185556 -17.851157054274545
rtoes -19.036412740872393
lfemur -27.98678961657148 2.8321298453259622 -18.342567570763677
ltibia 54.78646770208218
lfoot -33.2158577366781 -3.53517566035418
ltoes -20.65913892039683
28
root 0 0 0 1.2576404478280008 -3.5911636332692622 1.8995606072446969
lowerback 12.042965193902386 0.8481584613175324 -0.10758087833345487
upperback -4.409417105501485 1.0652161495224108 -0.6023739365499353
thorax -11.573015557268198 0.48718469691862337 -0.8027385267381599
lowerneck -5.962162116840889 1.728176463663733 4.6999315149623175
upperneck 18.393739548354123 3.2869434651605802 -8.46862495115872
head 6.7316066704119075 1.212660561479657 -3.2529329507441913
rclavicle -3.868105784664527E-16 -2.0996123873872155E-15
rhumerus 20.787302386888925 14.829609787700898 -47.29453200999822
rradius 72.8755053477424
rwrist 27.41861904078499
rhand -34.55932981585335 -57.651843375401704
rfingers 7.12502000000002
rthumb -7.752682115592856 -87.6070225680372
lclavicle -2.2364024136164592E-15 4.3009298032138135E-16
lhumerus 21.89071996023604 -13.061114570241712 44.452435933574975
lradius 70.74022547229666
lwrist -22.500523481216433
lhand -45.09545966551933 -70.83709689788816
lfingers 7.125020000000016
lthumb -17.856930405336005 -41.8938612401807
rfemur -25.614686970351663 -2.3758182752870995 16.87870925742492
rtibia 54.52908688421568
rfoot -31.331721572907423 -17.85002292523858
rtoes -19.015584199183685
lfemur -27.994584410791962 2.836659156645981 -18.34781436463783
ltibia 54.7978232854517
lfoot -33.21028678559195 -3.536480077226365
ltoes -20.638858565015134
29
root 0 0 0 1.258188238927981 -3.591660868693964 1.8997736416603153
lowerback 12.04290932387836 0.8482618365511121 -0.10767289157175708
upperback -4.409474048080531 1.0653008007698703 -0.6024619836563508
thorax -11.573038318940247 0.4872413230714459 -0.8027442037872636
lowerneck -5.961950797255627 1.7282865978566349 4.699910913892228
upperneck 18.393727324702052 3.2871125049998895 -8.468641334896377
head 6.731556383854589 1.2127437737860287 -3.252904136917307
rclavicle -3.765903069556427E-16 -2.111860936976241E-15
rhumerus 20.789801774912114 14.833560993222326 -47.29486916681135
rradius 72.87515493492079
rwrist 27.418041882676377
rhand -34.55805560094808 -57.65181136204466
rfingers 7.12502000000002
rthumb -7.751579341327252 -87.60808556335154
lclavicle -2.2009535458921955E-15 4.1760494194054253E-16
lhumerus 21.889838657681786 -13.057949007397623 44.45107673098335
lradius 70.73837590285136
lwrist -22.502732946479753
lhand -45.09577920771727 -70.84175019420775
lfingers 7.125020000000016
lthumb -17.8574054115317 -41.89857087179895
rfemur -25.61666405700701 -2.3710536356255822 16.876533393925456
rtibia 54.521486634630435
rfoot -31.33693324771198 -17.85375766768088
rtoes -19.02968504005125
lfemur -27.991143534536796 2.8337069551278766 -18.344167137666194
ltibia 54.789936746619006
lfoot -33.21757442047426 -3.533317650350521
ltoes -20.650738445143393
30
root 0 0 0 1.2582385805885385 -3.59184211033659 1.8996549070216937
lowerback 12.042869555093041 0.8482875000175719 -0.10761971455301578
upperback -4.409499753273347 1.0653414627003255 -0.6024390834056687
thorax -11.573040700873278 0.48726101083676565 -0.8027596590338284
lowerneck -5.96189507065429 1.728316031839021 4.699911313677598
upperneck 18.393739235422053 3.287154518138659 -8.468674009626088
head 6.73154853993391 1.212758312654854 -3.252909669892662
rclavicle -3.766234896506828E-16 -2.1120909660401847E-15
rhumerus 20.789738310613117 14.83335106013485 -47.29465502239226
rradius 72.87520894972822
rwrist 27.418230042625638
rhand -34.55811573346131 -57.65194159082087
rfingers 7.12502000000002
rthumb -7.751616040212271 -87.60827233918224
lclavicle -2.2025572632585743E-15 4.193142624601856E-16
lhumerus 21.89013438987682 -13.0581842563187 44.45090302427709
lradius 70.73869143577141
lwrist -22.502770311017763
lhand -45.09590407174963 -70.84222911643332
lfingers 7.125020000000016
lthumb -17.857509674627384 -41.89915778842064
rfemur -25.615407292483667 -2.371051070320255 16.87687453278195
rtibia 54.52062875377236
rfoot -31.338442140222362 -17.85297017638056
rtoes -19.033868345504303
lfemur -27.989261163905695 2.8321264502145818 -18.34206394116049
ltibia 54.785160968370604
lfoot -33.21836564686435 -3.5324158296863146
ltoes -20.657253807792355
